<mxfile host="65bd71144e">
    <diagram id="JXa56y0GMny1fc2nrYID" name="Page-1">
        <mxGraphModel dx="1002" dy="571" grid="0" gridSize="10" guides="1" tooltips="1" connect="1" arrows="1" fold="1" page="1" pageScale="1" pageWidth="850" pageHeight="1100" background="none" math="0" shadow="0">
            <root>
                <mxCell id="0"/>
                <mxCell id="1" parent="0"/>
                <mxCell id="2" value="User/ Client (Browser)" style="rounded=0;whiteSpace=wrap;html=1;strokeColor=#06A254;strokeWidth=1;fontColor=#c4f8e9;fontStyle=1;fillStyle=solid;" vertex="1" parent="1">
                    <mxGeometry x="348" y="40" width="155" height="40" as="geometry"/>
                </mxCell>
                <mxCell id="3" value="" style="endArrow=classic;html=1;fontColor=#c4f8e9;exitX=0.5;exitY=1;exitDx=0;exitDy=0;strokeColor=#06A254;entryX=0.5;entryY=0;entryDx=0;entryDy=0;" edge="1" parent="1" source="2" target="4">
                    <mxGeometry width="50" height="50" relative="1" as="geometry">
                        <mxPoint x="420" y="290" as="sourcePoint"/>
                        <mxPoint x="426" y="140" as="targetPoint"/>
                    </mxGeometry>
                </mxCell>
                <mxCell id="4" value="http://my-page.com" style="rounded=0;whiteSpace=wrap;html=1;strokeColor=#06A254;strokeWidth=1;fontColor=#c4f8e9;fontStyle=1;fillStyle=solid;" vertex="1" parent="1">
                    <mxGeometry x="325" y="120" width="200" height="40" as="geometry"/>
                </mxCell>
                <mxCell id="5" value="" style="endArrow=classic;html=1;fontColor=#c4f8e9;exitX=0.5;exitY=1;exitDx=0;exitDy=0;strokeColor=#06A254;" edge="1" parent="1" source="4">
                    <mxGeometry width="50" height="50" relative="1" as="geometry">
                        <mxPoint x="455" y="400" as="sourcePoint"/>
                        <mxPoint x="425" y="200" as="targetPoint"/>
                    </mxGeometry>
                </mxCell>
                <mxCell id="7" value="Domain Lookup" style="rounded=0;whiteSpace=wrap;html=1;strokeColor=#06A254;strokeWidth=1;fontColor=#c4f8e9;fontStyle=1;dashed=1;fillStyle=solid;" vertex="1" parent="1">
                    <mxGeometry x="325.5" y="200" width="200" height="40" as="geometry"/>
                </mxCell>
                <mxCell id="8" value="Request" style="rounded=0;whiteSpace=wrap;html=1;strokeColor=#06A254;strokeWidth=1;fontColor=#c4f8e9;fontStyle=1;fillStyle=solid;" vertex="1" parent="1">
                    <mxGeometry x="120" y="200" width="160" height="40" as="geometry"/>
                </mxCell>
                <mxCell id="9" value="Response (e.g.&amp;nbsp; HTML&lt;br&gt;page )" style="rounded=0;whiteSpace=wrap;html=1;strokeColor=#06A254;strokeWidth=1;fontColor=#c4f8e9;fontStyle=1;fillStyle=solid;" vertex="1" parent="1">
                    <mxGeometry x="570" y="195" width="160" height="50" as="geometry"/>
                </mxCell>
                <mxCell id="10" value="Server &lt;br&gt;(at 10.212.212.12)" style="rounded=0;whiteSpace=wrap;html=1;strokeColor=#06A254;strokeWidth=1;fontColor=#c4f8e9;fontStyle=1;fillStyle=solid;" vertex="1" parent="1">
                    <mxGeometry x="345" y="310" width="160" height="60" as="geometry"/>
                </mxCell>
                <mxCell id="11" value="" style="endArrow=classic;startArrow=classic;html=1;strokeColor=#06A254;fontColor=#c4f8e9;" edge="1" parent="1">
                    <mxGeometry width="50" height="50" relative="1" as="geometry">
                        <mxPoint x="425" y="420" as="sourcePoint"/>
                        <mxPoint x="425" y="370" as="targetPoint"/>
                        <Array as="points">
                            <mxPoint x="425" y="400"/>
                        </Array>
                    </mxGeometry>
                </mxCell>
                <mxCell id="12" value="&amp;lt;Your code&amp;gt;" style="rounded=0;whiteSpace=wrap;html=1;strokeColor=#06A254;strokeWidth=1;fontColor=#c4f8e9;fontStyle=1;fillStyle=solid;" vertex="1" parent="1">
                    <mxGeometry x="325.5" y="420" width="200" height="40" as="geometry"/>
                </mxCell>
                <mxCell id="13" value="Database" style="rounded=0;whiteSpace=wrap;html=1;strokeColor=#06A254;strokeWidth=1;fontColor=#c4f8e9;fontStyle=1;dashed=1;fillStyle=solid;" vertex="1" parent="1">
                    <mxGeometry x="580" y="420" width="140" height="40" as="geometry"/>
                </mxCell>
                <mxCell id="14" value="" style="endArrow=classic;startArrow=classic;html=1;strokeColor=#06A254;fontColor=#c4f8e9;entryX=1;entryY=0.5;entryDx=0;entryDy=0;exitX=0;exitY=0.5;exitDx=0;exitDy=0;dashed=1;" edge="1" parent="1" source="13" target="12">
                    <mxGeometry width="50" height="50" relative="1" as="geometry">
                        <mxPoint x="570" y="440" as="sourcePoint"/>
                        <mxPoint x="540" y="440" as="targetPoint"/>
                    </mxGeometry>
                </mxCell>
                <mxCell id="15" value="Node.js, PHP" style="rounded=0;whiteSpace=wrap;html=1;strokeColor=#06A254;strokeWidth=1;fontColor=#c4f8e9;fontStyle=1;fillStyle=solid;" vertex="1" parent="1">
                    <mxGeometry x="100" y="420" width="180" height="40" as="geometry"/>
                </mxCell>
                <mxCell id="16" value="" style="endArrow=none;html=1;strokeColor=#06A254;fontColor=#c4f8e9;entryX=0;entryY=0.5;entryDx=0;entryDy=0;" edge="1" parent="1" target="12">
                    <mxGeometry width="50" height="50" relative="1" as="geometry">
                        <mxPoint x="280" y="440" as="sourcePoint"/>
                        <mxPoint x="320" y="440" as="targetPoint"/>
                    </mxGeometry>
                </mxCell>
                <mxCell id="17" value="" style="edgeStyle=segmentEdgeStyle;endArrow=classic;html=1;curved=0;rounded=0;endSize=8;startSize=8;strokeColor=#06A254;fontColor=#c4f8e9;exitX=1;exitY=0.5;exitDx=0;exitDy=0;" edge="1" parent="1" source="10">
                    <mxGeometry width="50" height="50" relative="1" as="geometry">
                        <mxPoint x="510" y="340" as="sourcePoint"/>
                        <mxPoint x="650" y="245" as="targetPoint"/>
                    </mxGeometry>
                </mxCell>
                <mxCell id="18" value="" style="edgeStyle=segmentEdgeStyle;endArrow=classic;html=1;curved=0;rounded=0;endSize=8;startSize=8;strokeColor=#06A254;fontColor=#c4f8e9;entryX=1;entryY=0.5;entryDx=0;entryDy=0;exitX=0.5;exitY=0;exitDx=0;exitDy=0;" edge="1" parent="1" source="9" target="2">
                    <mxGeometry width="50" height="50" relative="1" as="geometry">
                        <mxPoint x="650" y="190" as="sourcePoint"/>
                        <mxPoint x="510" y="60" as="targetPoint"/>
                        <Array as="points">
                            <mxPoint x="650" y="60"/>
                        </Array>
                    </mxGeometry>
                </mxCell>
                <mxCell id="19" value="" style="edgeStyle=segmentEdgeStyle;endArrow=classic;html=1;curved=0;rounded=0;endSize=8;startSize=8;strokeColor=#06A254;fontColor=#c4f8e9;exitX=0;exitY=0.5;exitDx=0;exitDy=0;entryX=0.5;entryY=0;entryDx=0;entryDy=0;" edge="1" parent="1" source="2" target="8">
                    <mxGeometry width="50" height="50" relative="1" as="geometry">
                        <mxPoint x="200" y="160" as="sourcePoint"/>
                        <mxPoint x="40" y="60" as="targetPoint"/>
                        <Array as="points"/>
                    </mxGeometry>
                </mxCell>
                <mxCell id="20" value="" style="edgeStyle=segmentEdgeStyle;endArrow=classic;html=1;curved=0;rounded=0;endSize=8;startSize=8;strokeColor=#06A254;fontColor=#c4f8e9;entryX=0;entryY=0.5;entryDx=0;entryDy=0;exitX=0.5;exitY=1;exitDx=0;exitDy=0;" edge="1" parent="1" source="8" target="10">
                    <mxGeometry width="50" height="50" relative="1" as="geometry">
                        <mxPoint x="200" y="340" as="sourcePoint"/>
                        <mxPoint x="280" y="290" as="targetPoint"/>
                        <Array as="points">
                            <mxPoint x="200" y="340"/>
                        </Array>
                    </mxGeometry>
                </mxCell>
            </root>
        </mxGraphModel>
    </diagram>
</mxfile>